<?xml version="1.0" encoding="utf-8"?>
<!-- Svg Vector Icons : http://www.onlinewebfonts.com/icon -->
<!DOCTYPE svg PUBLIC "-//W3C//DTD SVG 1.1//EN" "http://www.w3.org/Graphics/SVG/1.1/DTD/svg11.dtd">
<svg version="1.1" xmlns="http://www.w3.org/2000/svg" xmlns:xlink="http://www.w3.org/1999/xlink" x="0px" y="0px" viewBox="0 0 1000 1000" enable-background="new 0 0 1000 1000" xml:space="preserve">
<metadata> Svg Vector Icons : http://www.onlinewebfonts.com/icon </metadata>
<g><g><g id="Cloud_x5F_Rain"><g><path d="M514.4,644.1c-23.9,0-43.2,19.3-43.2,43.2v201.8c0,23.9,19.4,43.2,43.2,43.2c23.9,0,43.2-19.3,43.2-43.2V687.4C557.6,663.5,538.3,644.1,514.4,644.1z M370.3,557.6c-23.9,0-43.2,19.3-43.2,43.2v201.8c0,23.9,19.4,43.2,43.2,43.2c23.9,0,43.2-19.3,43.2-43.2V600.9C413.5,577,394.2,557.6,370.3,557.6z M658.5,557.6c-23.9,0-43.2,19.3-43.2,43.2v201.8c0,23.9,19.4,43.2,43.2,43.2s43.2-19.3,43.2-43.2V600.9C701.8,577,682.4,557.6,658.5,557.6z M874.7,399.1c0-117-93-212.1-209.1-215.8C610.2,113,524.5,67.6,427.9,67.6c-160.9,0-292,125.6-301.7,284C57.2,387.8,10,459.9,10,543.2c0,119.4,96.8,216.2,216.2,216.2c23.9,0,43.2-19.3,43.2-43.2s-19.4-43.2-43.2-43.2c-71.5,0-129.7-58.2-129.7-129.7c0-48.4,26.7-92.4,69.8-114.9l43.3-22.6l3-48.7c6.9-113.7,101.6-202.8,215.4-202.8c66.5,0,128.4,30.1,169.8,82.7l24.9,31.6l40.2,1.3c70.3,2.3,125.4,59.1,125.4,129.4v57.6l53.2,22.2c37.7,15.7,62.1,52.3,62.1,93.1c0,55.6-45.3,100.9-100.9,100.9c-23.9,0-43.2,19.3-43.2,43.2s19.4,43.2,43.2,43.2c103.5,0,187.4-83.9,187.4-187.4C990,494.1,942.4,427.4,874.7,399.1z"/></g></g></g><g></g><g></g><g></g><g></g><g></g><g></g><g></g><g></g><g></g><g></g><g></g><g></g><g></g><g></g><g></g></g>
</svg>